P1
# CREATOR: GIMP PNM Filter Version 1.1
48 48
0000000000000000000011111111000000000000000000000000000000000000001101
1111111100000000000000000000000000000000001111111111111110000000000000
0000000000000000000101011111111111111000000000000000000000000000001111
1111111111111111000000000000000000000000000101011111111111111111100000
0000000000000000000011111111111111111111111100000000000000000000000101
1110000001111111111111100000000000000000000011110000000000000100001111
1000000000000000000000111000000000000000000001011000000000000000000001
1010000000000000000000011111000000000000000000011110000000000000000000
0110110000000000000000000111000000000000000000000111110000000000000000
0001010000000000000000000001110100000000000000000001100000000000000000
0000001111000000000000000000011000000000000000000000010111000000000000
0000000110000000000000000000000001100000000000000000000010000111100000
0000111110011000000000000000000001100011111100000001111111001100000000
0000000000101001100000010010000000011010100000000000000001000100001110
0000100011100000100100000000000000010100000101000100101001010001010100
0000000000000101010000000100001000000000010101000000000000000100100000
0000010010010000010010010000000000000000100001000010000001000101000010
1000000000000000001000000010001000010000000000101000000000000000000100
0000000000000010000000010100000000000000000001010000000100000010000000
0101000000000000000000001100000000110011001000000110000000000000000000
0000100001000011000010000001000000000000000000000000100010000000000001
0000100000000000000000000000001000000000000000001000100000000000000000
0000000010010000000000000011010000000000000000000000000001000001110011
1000100100000000000000000000000000010101111111111110101000000000000000
0000000000000010000110000110000110000000000000000000000000000011000011
1111000011100000000000000000000000000000101000000000000010110000000000
0000000000000000001010000000000001011110000000000000000000000000001001
0000000000111010010000000000000000000000001110001000000001010100011000
0000000000000000011111010001000000101010001111000000000000000011111111
0100001111110101000011111000000000000111111111110010000010101110000111
1111000000001111111111111100100000010111000001111111110000001111111111
1111000100000011000000111111111111000011111111111111000010000100000000
1111111111111100111111111111110000010010000000011111111111111111