P1
# CREATOR: GIMP PNM Filter Version 1.1
80 32
0000000000000000000000000000000000000000000000000000000000000000000000
0000000000000000000000000000000000000000000000000000000000000000000000
0000000000000000000000000000000000000000000000000000000000000000000000
0000000000000000000000000000000000000000000000000000000000000000000000
0000000000000000000000000000000000000000000000000000000000000000000000
0000000000000000000000000000000000000000000000000000000000000000000000
0000000000000000000000000000000000000000000000000000000000000000000000
0000000000000000000000000000000000000000000000000000000000000000000000
0000000000000000000000000000000000000000000000000000000000000000000000
0000111000000000000000000000000000000000000000000000000000000000000000
0000000000000100010000000000000000000000000000000000000000000000000000
0000000000000000000000101100100000000000000000000000000000000000000000
0000000000000000000000000000000100101001000001111111110000011111000001
1111011111110000111111100000011111110000010011000100001111111111110000
1111100011111001111111000111111110001111111111111001001010010000111111
1111111100011110011111001111111100011111110001111110000111110010000010
0000111100000011111001111101111000111111111011111111001111110000001111
1001000100000111100000000111100011110111000011111111111111111101111110
0000001111100011100000011110000000011110001111101000001111111111111111
1101111100000000111110000000000001111000000011111000011110000001111111
1111111111100111110000000011111000000000001111000000011111000001111000
0001111101111111011110011111000000011111000000000000111111111111111000
0011111000000111100111111001111000111110000111111000000000000111111111
1111110000001111100000111110011111101111000001111111111111000000000000
0111111111111100000001111100000011110001111100111100000001111111110000
0000000000000000000000000000000000000000000000000000000000000000000000
0000000000000000000000000000000000000000000000000000000000000000000000
0000000000000000000000000000000000000000000000000000000000000000000000
0000000000000000000000000000000000000000000000000000000000000000000000
0000000000000000000000000000000000000000000000000000000000000000000000
0000000000000000000000000000000000000000000000000000000000000000000000
0000000000000000000000000000000000000000000000000000000000000000000000
0000000000000000000000000000000000000000000000000000000000000000000000
0000000000000000000000000000000000000000000000000000000000000000000000
0000000000000000000000000000000000000000000000000000000000000000000000
0000000000000000000000000000000000000000000000000000000000000000000000
0000000000000000000000000000000000000000