P1
# CREATOR: GIMP PNM Filter Version 1.1
564 8
0010000100100100100010000100010111000010000001000100000000000000000000
0000000000000000001000000000000000000000000000000000000000000000000000
0000000000000000000000000100000000010000011100011100001000111100011100
1111001111101111100111001000100111000000101000101000001000101000100111
0011110001110011110001110011111010001010001010001010001010001011111001
1100010000011100001000000000001000000000100000000000000010000000000100
0000001000000000000000001000001000000000000000000000000000000000000000
0000000000000000000000000000000000000000000000000000100000100000100000
0000001000010010111111011100101010100000001000001000001000101010001000
0000000000000000000000100111000010000111000111000001001111100111101111
1001110001110000100000100000100000000000100010001010001001010010001010
0010100010100000100000100010100010001000000010100010100000110110110010
1000101000101000101000101000100010001000101000101000101000101000100000
1001000001000000010001010000000000100000000010000000000000001000000000
1010000000100000001000001000100000100000000000000000000000000000000000
0000000000000000000000000000000000000000000000000000000100000010000001
0000000000100010010001001010101001001010000001000001000000010001110000
1000000000000000000000000100100010011000100010100010001100100000100000
0000101000101000100010000010000100001111100001000001001001101000101000
1010000010001010000010000010000010001000100000001010010010000010101010
1010100010100010100010100010100000001000100010100010100010010100010100
0001000100000010000001001000100000000001000000001000000000000000100000
0000100000000010000000000000000010000010000000000000000000000000000000
0000000000000000010000000000000000000000000000000000000000010000001000
0001000100000010000000000100100110000001000100000000000100000001000010
0011111000000011111000000000010010101010100000010000010001010011110011
1100000100011100011110000000000000100000000000000010001000101010111110
1111001000001000101111001111001011101111100010000000101110001000001000
1010011010001011110010001011110001110000100010001001010010101000100000
1000001000010000001000000100000000000000000000011110111100011110011110
0111000010000111001111000010000010001111001000001101001111000111001111
0001111011110001111011111010001010001010001010010010001011111010000000
1000000010101010001000000000111111001100001000101010000000010000000100
0111000010000000000000000000000010001010100010000010000000101001000000
1010001000100010001000001000000000000001000011111000010000100010101010
0010100010100000100010100000100000100010100010001000000010100100100000
1000101000101000101000001000101000100000100010001000100101001010100101
0000100001000001000000010000010000000000000000000010001010001010000010
0010100010011100100010100010001000001000100010100000101010100010100010
1000101000101000101000000100001000101000101010100110001000100001000100
0000100000010000010000100000000001001010101001001010010000000001000000
0100101010001000001000000000000000001000100010001000010000100010111110
0000101000100100001000101000100000000010000010000000000010000010001001
0110001010001010000010001010000010000010001010001000100000001010001010
0000100010100010100010100000101010100010000010001000100010010100101010
1000100010001000000100000001000001000000000000000000001000101000101000
0010001011110000100001111010001000100000100011110010010010101010001010
0010111100011110100000011110010010100010010100101010011000011110011000
0100000010000001000000000000000000000000000111000101010110100000000010
0000100000000000000000100000000000100001000001110011111011111001110000
0100111100011100010000011100011100001000001000000100000000010000000000
0100001000101000101000101000101000001000001000101000100010001000101000
1010000010001010001010001010000001110010001010001000100010001000100010
1010100010001000100000010000000010000100000000000000000000011110111100
0111100111100111100010000000101000100010001010001000100110001010101000
1001110010000000001010000011110000110001111000100001010010010000001011
1110010000001000000100000000001000000000000000001000100010000000000000
0001000100000000000000000100000000000010000100000000000000000000000000
0000000000000000000000000000000000000000100001000000000000000000000000
1000000000100010111100011100111100111110100000011100100010011100011100
1000101111101000101000100111001000000001101000100111000010000111000010
0001010010001000100011111001110000001001110000000011111100000000000000
0000000000000000000000001000011100000000000000010000000000000000000000
0000000000001000000000100000000000000000000000000000000000000000001111
00000000001000001000001000000000